<svg id="Layer_1" data-name="Layer 1" xmlns="http://www.w3.org/2000/svg" xmlns:xlink="http://www.w3.org/1999/xlink" viewBox="0 0 81.18 75.9"><defs><style>.cls-1{fill:red;}.cls-2{fill:url(#linear-gradient);}</style><linearGradient id="linear-gradient" x1="31.99" y1="94.05" x2="107.81" y2="94.05" gradientUnits="userSpaceOnUse"><stop offset="0" stop-color="aqua"/><stop offset="0.09" stop-color="#2bedd9"/><stop offset="0.22" stop-color="#69d2a2"/><stop offset="0.35" stop-color="#9abe77"/><stop offset="0.46" stop-color="#beaf58"/><stop offset="0.54" stop-color="#d3a545"/><stop offset="0.6" stop-color="#dba23e"/><stop offset="0.61" stop-color="#d59e3f"/><stop offset="0.66" stop-color="#a47a49"/><stop offset="0.71" stop-color="#7a5a51"/><stop offset="0.77" stop-color="#584158"/><stop offset="0.82" stop-color="#3d2d5d"/><stop offset="0.88" stop-color="#2a1f61"/><stop offset="0.94" stop-color="#1f1763"/><stop offset="1" stop-color="#1b1464"/></linearGradient></defs><title>logo1</title><rect class="cls-1" y="18.9" width="64" height="54" rx="11.94"/><path class="cls-2" d="M30.26,60.54c5.13,8.25,12.88,13.85,20,20.28C59.47,89.21,64,99,63.33,111.68c-.17,3.63-1.38,10.56-4.48,13.18-3.49,3-8.18-.32-9.85-3.72-2.14-4.37,2.48-7.84,4.79-11.13,2.62-3.73,4.64-6.72,8.19-9.71C67.14,96,75.43,90.6,74.34,82.79c-.76-5.45-5-11.68-10.33-13.73-7.3-2.83-15.73,1.31-18.67,8.25-3.48,8.21,1.3,19.22,9.76,22.19,9.14,3.2,20.42-1.14,29.19-3.94,9.4-3,19.14-7,25.3-15,2.34-3.06-2.86-6.05-5.18-3C98.93,84.65,89,87.9,80.68,90.4c-7.31,2.21-19.74,7.47-26.44,1.8-4.49-3.78-6-13-.37-16.51a8.23,8.23,0,0,1,9.91.46c2.33,1.9,5,5.09,4.72,8.35-.35,3.68-5.18,6.9-7.74,9-2.81,2.36-5.83,4.59-8.21,7.4-2.54,3-4.43,6.59-6.84,9.74-4.71,6.15-3.94,11.48,1,17.1,3.73,4.26,11.31,6,15.91,1.82,5.73-5.2,7-15.11,6.65-22.29-.53-11-4-20.08-11.78-27.89-7.32-7.36-16.47-13-22-21.91-2-3.28-7.23-.27-5.18,3Z" transform="translate(-29 -56.1)"/></svg>